# Blender v2.78 (sub 0) OBJ File: 'Encounter.blend'
# www.blender.org
mtllib EncounterNavmesh.mtl
o Plane
v 9.434354 0.000091 6.583060
v 8.186587 0.000091 8.221661
v 2.793133 0.000091 3.784702
v 4.043022 0.000091 9.677163
v 1.513322 0.000091 11.461769
v -0.384585 0.000091 4.865978
v -1.242217 0.000091 4.514556
v -3.257365 0.000091 10.390429
v -2.880377 0.000091 2.919703
v -9.722700 0.000091 4.649822
v -8.216822 0.000091 6.858200
v -6.109559 0.000091 8.830786
v 10.334663 0.000091 3.055267
v 4.153350 0.000091 1.834812
v -3.432766 0.000091 2.127061
v -4.392307 0.000091 1.285812
v 4.476638 0.000091 -0.882877
v 4.620782 0.000091 1.220980
v -4.670528 0.000091 -0.687863
v -1.290882 0.000091 -1.885223
v 11.673904 0.000091 -0.873230
v 11.236553 0.000091 -2.971353
v -11.420156 0.000091 -1.430817
v 3.634372 0.000091 -2.999246
v 2.036643 0.000091 -4.267194
v -1.508185 0.000091 -4.264616
v -3.618588 0.000091 -2.968646
v -9.186849 0.000091 -5.015960
v -1.460778 0.000091 0.317984
v 1.789553 0.000091 -5.634937
v -0.591970 0.000091 -6.829703
v 0.899089 0.000091 -6.895987
v -0.781898 0.000091 -8.090503
v -5.588747 0.000091 -9.462660
v -1.010104 0.000091 1.778025
v -8.179752 0.000091 -8.144684
v 7.429918 0.000091 -7.715474
v 3.101254 0.000091 -10.632110
v 0.919700 0.000091 -9.599653
v -1.830534 0.000091 -9.995092
v 12.728400 0.000091 9.773152
v -1.988026 0.000091 3.565317
v -20.000000 0.000091 20.000000
v 20.000000 0.000091 20.000000
v 3.229959 0.000091 2.375267
v -4.787404 0.000091 0.405441
v -20.000000 0.000091 -20.000000
v 20.000000 0.000091 -20.000000
v 0.781539 0.000091 -8.327494
v 2.659218 0.000091 -1.699505
v -1.118450 0.000091 2.992689
v 2.427478 0.000091 0.368230
v 0.925772 0.000091 -0.727106
v 1.374210 0.000091 -2.387342
v 11.771493 0.000091 11.790390
v 5.778533 0.000091 13.895525
v 2.119753 0.000091 16.476652
v -4.780231 0.000091 14.927142
v -14.131235 0.000091 6.624334
v -11.953238 0.000091 9.818376
v -8.905443 0.000091 12.671385
v 14.878319 0.000091 4.318083
v 16.217844 0.000091 -1.306809
v 15.569649 0.000091 -4.221508
v -16.586315 0.000091 -2.170273
v -13.356217 0.000091 -7.355570
v -8.152178 0.000091 -13.786963
v -11.899625 0.000091 -11.880735
v 10.677099 0.000091 -11.259955
v 4.416426 0.000091 -15.478373
v 1.261181 0.000091 -13.985101
v -2.716563 0.000091 -14.557035
vt 0.0000 0.0000
vt 0.0000 0.0000
vt 0.0000 0.0000
vt 0.0000 0.0000
vt 0.0000 0.0000
vt 0.0000 0.0000
vt 0.0000 0.0000
vt 0.0000 0.0000
vt 0.0000 0.0000
vt 0.0000 0.0000
vt 0.0000 0.0000
vt 0.0000 0.0000
vt 0.0000 0.0000
vt 0.0000 0.0000
vt 0.0000 0.0000
vt 0.0000 0.0000
vt 0.0000 0.0000
vt 0.0000 0.0000
vt 0.0000 0.0000
vt 0.0000 0.0000
vt 0.0000 0.0000
vt 0.0000 0.0000
vt 0.0000 0.0000
vt 0.0000 0.0000
vt 0.0000 0.0000
vt 0.0000 0.0000
vt 0.0000 0.0000
vt 0.0000 0.0000
vt 0.0000 0.0000
vt 0.0000 0.0000
vt 0.0000 0.0000
vt 0.0000 0.0000
vt 0.0000 0.0000
vt 0.0000 0.0000
vt 0.0000 0.0000
vt 0.0000 0.0000
vt 0.0000 0.0000
vt 0.0000 0.0000
vt 0.0000 0.0000
vt 0.0000 0.0000
vt 0.0000 0.0000
vt 0.0000 0.0000
vt 0.0000 0.0000
vt 0.0000 0.0000
vt 0.0000 0.0000
vt 0.0000 0.0000
vt 0.0000 0.0000
vt 0.0000 0.0000
vt 0.0000 0.0000
vt 0.0000 0.0000
vt 0.0000 0.0000
vt 0.0000 0.0000
vt 0.0000 0.0000
vt 0.0000 0.0000
vt 0.0000 0.0000
vt 0.0000 0.0000
vt 0.0000 0.0000
vt 0.0000 0.0000
vt 0.0000 0.0000
vt 0.0000 0.0000
vt 0.0000 0.0000
vt 0.0000 0.0000
vt 0.0000 0.0000
vt 0.0000 0.0000
vt 0.0000 0.0000
vt 0.0000 0.0000
vt 0.0000 0.0000
vt 0.0000 0.0000
vt 0.0000 0.0000
vt 0.0000 0.0000
vt 0.0000 0.0000
vt 0.0000 0.0000
vn 0.0000 1.0000 0.0000
usemtl None
s off
f 56/1/1 2/2/1 4/3/1
f 9/4/1 51/5/1 35/6/1
f 35/6/1 45/7/1 52/8/1
f 58/9/1 5/10/1 8/11/1
f 23/12/1 59/13/1 10/14/1
f 10/14/1 60/15/1 11/16/1
f 31/17/1 49/18/1 33/19/1
f 70/20/1 48/21/1 47/22/1
f 69/23/1 38/24/1 37/25/1
f 38/24/1 71/26/1 39/27/1
f 36/28/1 66/29/1 28/30/1
f 51/5/1 7/31/1 6/32/1
f 40/33/1 71/26/1 72/34/1
f 24/35/1 54/36/1 50/37/1
f 67/38/1 36/28/1 34/39/1
f 50/37/1 53/40/1 52/8/1
f 1/41/1 62/42/1 13/43/1
f 32/44/1 31/17/1 30/45/1
f 23/12/1 66/29/1 65/46/1
f 62/42/1 21/47/1 13/43/1
f 27/48/1 20/49/1 26/50/1
f 72/34/1 34/39/1 40/33/1
f 26/50/1 30/45/1 31/17/1
f 54/36/1 26/50/1 20/49/1
f 5/10/1 56/1/1 4/3/1
f 11/16/1 61/51/1 12/52/1
f 20/49/1 53/40/1 54/36/1
f 3/53/1 51/5/1 6/32/1
f 35/6/1 53/40/1 29/54/1
f 19/55/1 29/54/1 20/49/1
f 35/6/1 15/56/1 9/4/1
f 21/47/1 64/57/1 22/58/1
f 61/51/1 8/11/1 12/52/1
f 16/59/1 19/55/1 46/60/1
f 22/58/1 69/23/1 37/25/1
f 33/19/1 39/27/1 40/33/1
f 2/2/1 41/61/1 1/41/1
f 17/62/1 50/37/1 52/8/1
f 18/63/1 52/8/1 14/64/1
f 45/7/1 14/64/1 52/8/1
f 47/22/1 43/65/1 65/46/1
f 43/65/1 57/66/1 58/9/1
f 63/67/1 62/42/1 44/68/1
f 56/1/1 55/69/1 2/2/1
f 9/4/1 42/70/1 51/5/1
f 35/6/1 51/5/1 45/7/1
f 58/9/1 57/66/1 5/10/1
f 23/12/1 65/46/1 59/13/1
f 10/14/1 59/13/1 60/15/1
f 31/17/1 32/44/1 49/18/1
f 72/34/1 71/26/1 70/20/1
f 70/20/1 69/23/1 48/21/1
f 47/22/1 68/71/1 67/38/1
f 72/34/1 70/20/1 47/22/1
f 47/22/1 67/38/1 72/34/1
f 69/23/1 70/20/1 38/24/1
f 38/24/1 70/20/1 71/26/1
f 36/28/1 68/71/1 66/29/1
f 51/5/1 42/70/1 7/31/1
f 40/33/1 39/27/1 71/26/1
f 24/35/1 25/72/1 54/36/1
f 67/38/1 68/71/1 36/28/1
f 50/37/1 54/36/1 53/40/1
f 1/41/1 41/61/1 62/42/1
f 23/12/1 28/30/1 66/29/1
f 62/42/1 63/67/1 21/47/1
f 27/48/1 19/55/1 20/49/1
f 72/34/1 67/38/1 34/39/1
f 26/50/1 25/72/1 30/45/1
f 54/36/1 25/72/1 26/50/1
f 5/10/1 57/66/1 56/1/1
f 11/16/1 60/15/1 61/51/1
f 20/49/1 29/54/1 53/40/1
f 3/53/1 45/7/1 51/5/1
f 35/6/1 52/8/1 53/40/1
f 19/55/1 15/56/1 29/54/1
f 35/6/1 29/54/1 15/56/1
f 21/47/1 63/67/1 64/57/1
f 61/51/1 58/9/1 8/11/1
f 16/59/1 15/56/1 19/55/1
f 22/58/1 64/57/1 69/23/1
f 33/19/1 49/18/1 39/27/1
f 2/2/1 55/69/1 41/61/1
f 17/62/1 24/35/1 50/37/1
f 18/63/1 17/62/1 52/8/1
f 43/65/1 60/15/1 59/13/1
f 65/46/1 66/29/1 47/22/1
f 43/65/1 59/13/1 65/46/1
f 66/29/1 68/71/1 47/22/1
f 44/68/1 55/69/1 56/1/1
f 44/68/1 56/1/1 57/66/1
f 61/51/1 60/15/1 43/65/1
f 58/9/1 61/51/1 43/65/1
f 43/65/1 44/68/1 57/66/1
f 48/21/1 69/23/1 64/57/1
f 48/21/1 64/57/1 63/67/1
f 41/61/1 55/69/1 44/68/1
f 62/42/1 41/61/1 44/68/1
f 44/68/1 48/21/1 63/67/1
