# Blender v2.78 (sub 0) OBJ File: ''
# www.blender.org
mtllib TestPerson.mtl
o Cube
v 0.000000 0.982071 0.000000
v 0.375000 2.262402 -0.375000
v 0.530330 1.732071 -0.530330
v 0.375000 1.201741 -0.375000
v 0.530330 2.262402 0.000000
v 0.750000 1.732071 0.000000
v 0.530330 1.201741 0.000000
v 0.375000 2.262402 0.375000
v 0.530330 1.732071 0.530330
v 0.375000 1.201741 0.375000
v 0.000000 2.262402 0.530330
v 0.000000 1.732071 0.750000
v 0.000000 1.201741 0.530330
v -0.000000 2.482071 0.000000
v -0.375000 2.262402 0.375000
v -0.530330 1.732071 0.530330
v -0.375000 1.201741 0.375000
v -0.530330 2.262402 0.000000
v -0.750000 1.732071 0.000000
v -0.530330 1.201741 0.000000
v -0.375000 2.262402 -0.375000
v -0.530330 1.732071 -0.530330
v -0.375000 1.201741 -0.375000
v 0.000000 2.262402 -0.530330
v 0.000000 1.732071 -0.750000
v 0.000000 1.201741 -0.530330
v 1.000000 -1.000000 -0.500000
v 1.000000 -1.000000 0.500000
v -1.000000 -1.000000 0.500000
v -1.000000 -1.000000 -0.500000
v 0.500000 1.000000 -0.500000
v 0.500000 1.000000 0.500000
v -0.500000 1.000000 0.500000
v -0.500000 1.000000 -0.500000
v 1.125000 0.000000 -0.750000
v 1.125000 0.000000 0.750000
v -1.125000 0.000000 0.750000
v -1.125000 0.000000 -0.750000
v 0.000000 -1.000000 -0.500000
v -0.000000 -1.000000 0.500000
v 0.000000 1.000000 -0.500000
v -0.000000 1.000000 0.500000
v 0.000000 0.000000 -0.750000
v -0.000000 0.000000 0.750000
v -0.187896 -1.241358 -0.312104
v -0.187896 -1.241358 0.312104
v -0.812104 -1.241358 0.312104
v -0.812104 -1.241358 -0.312104
v 0.812104 -1.241358 -0.312104
v 0.812104 -1.241358 0.312104
v 0.187896 -1.241358 0.312104
v 0.187896 -1.241358 -0.312104
v -0.187896 -2.148278 0.312104
v -0.187896 -2.148278 -0.312104
v -0.812104 -2.148278 0.312104
v -0.812104 -2.148278 -0.312104
v 0.812104 -2.148278 0.312104
v 0.812104 -2.148278 -0.312104
v 0.187896 -2.148278 0.312104
v 0.187896 -2.148278 -0.312104
vn 0.3574 -0.3574 -0.8629
vn 0.1566 0.9125 -0.3780
vn 0.1566 -0.9125 -0.3780
vn 0.3574 0.3574 -0.8629
vn 0.3780 0.9125 -0.1566
vn 0.3780 -0.9125 -0.1566
vn 0.8629 0.3574 -0.3574
vn 0.8629 -0.3574 -0.3574
vn 0.8629 -0.3574 0.3574
vn 0.3780 0.9125 0.1566
vn 0.3780 -0.9125 0.1566
vn 0.8629 0.3574 0.3574
vn 0.3574 -0.3574 0.8629
vn 0.1566 0.9125 0.3780
vn 0.1566 -0.9125 0.3780
vn 0.3574 0.3574 0.8629
vn -0.3574 -0.3574 0.8629
vn -0.1566 0.9125 0.3780
vn -0.1566 -0.9125 0.3780
vn -0.3574 0.3574 0.8629
vn -0.8629 -0.3574 0.3574
vn -0.3780 0.9125 0.1566
vn -0.3780 -0.9125 0.1566
vn -0.8629 0.3574 0.3574
vn -0.8629 -0.3574 -0.3574
vn -0.3780 0.9125 -0.1566
vn -0.3780 -0.9125 -0.1566
vn -0.8629 0.3574 -0.3574
vn -0.3574 0.3574 -0.8629
vn -0.3574 -0.3574 -0.8629
vn -0.1566 0.9125 -0.3780
vn -0.1566 -0.9125 -0.3780
vn 0.0000 -1.0000 0.0000
vn 0.0000 1.0000 0.0000
vn 0.8480 0.5300 0.0000
vn -0.0000 0.2425 0.9701
vn -0.8480 0.5300 -0.0000
vn 0.0000 -0.2425 -0.9701
vn 0.0000 0.2425 -0.9701
vn -0.9923 -0.1240 -0.0000
vn -0.0000 -0.2425 0.9701
vn 0.9923 -0.1240 0.0000
vn -0.0000 0.0000 1.0000
vn 0.7891 -0.6143 0.0000
vn -0.0000 -0.6143 0.7891
vn -0.7891 -0.6143 -0.0000
vn 0.0000 -0.6143 -0.7891
vn 0.0000 0.0000 -1.0000
vn -1.0000 0.0000 -0.0000
vn 1.0000 0.0000 0.0000
usemtl Material
s off
f 26//1 25//1 3//1 4//1
f 24//2 14//2 2//2
f 1//3 26//3 4//3
f 25//4 24//4 2//4 3//4
f 2//5 14//5 5//5
f 1//6 4//6 7//6
f 3//7 2//7 5//7 6//7
f 4//8 3//8 6//8 7//8
f 7//9 6//9 9//9 10//9
f 5//10 14//10 8//10
f 1//11 7//11 10//11
f 6//12 5//12 8//12 9//12
f 10//13 9//13 12//13 13//13
f 8//14 14//14 11//14
f 1//15 10//15 13//15
f 9//16 8//16 11//16 12//16
f 13//17 12//17 16//17 17//17
f 11//18 14//18 15//18
f 1//19 13//19 17//19
f 12//20 11//20 15//20 16//20
f 17//21 16//21 19//21 20//21
f 15//22 14//22 18//22
f 1//23 17//23 20//23
f 16//24 15//24 18//24 19//24
f 20//25 19//25 22//25 23//25
f 18//26 14//26 21//26
f 1//27 20//27 23//27
f 19//28 18//28 21//28 22//28
f 22//29 21//29 24//29 25//29
f 23//30 22//30 25//30 26//30
f 21//31 14//31 24//31
f 1//32 23//32 26//32
f 58//33 57//33 59//33 60//33
f 41//34 34//34 33//34 42//34
f 35//35 31//35 32//35 36//35
f 44//36 42//36 33//36 37//36
f 37//37 33//37 34//37 38//37
f 43//38 39//38 30//38 38//38
f 41//39 43//39 38//39 34//39
f 29//40 37//40 38//40 30//40
f 40//41 44//41 37//41 29//41
f 27//42 35//42 36//42 28//42
f 28//41 36//41 44//41 40//41
f 31//39 35//39 43//39 41//39
f 35//38 27//38 39//38 43//38
f 36//36 32//36 42//36 44//36
f 31//34 41//34 42//34 32//34
f 54//33 53//33 55//33 56//33
f 46//43 47//43 55//43 53//43
f 40//44 46//44 45//44 39//44
f 29//45 47//45 46//45 40//45
f 30//46 48//46 47//46 29//46
f 39//47 45//47 48//47 30//47
f 48//48 45//48 54//48 56//48
f 28//44 50//44 49//44 27//44
f 40//45 51//45 50//45 28//45
f 39//46 52//46 51//46 40//46
f 27//47 49//47 52//47 39//47
f 51//49 52//49 60//49 59//49
f 49//50 50//50 57//50 58//50
f 47//49 48//49 56//49 55//49
f 52//48 49//48 58//48 60//48
f 45//50 46//50 53//50 54//50
f 50//43 51//43 59//43 57//43
